<?xml version="1.0" encoding="UTF-8"?>
<svg xmlns="http://www.w3.org/2000/svg" viewBox="0 0 240.28 236.81">
  <g>
    <path
      d="M111.33,53.02c.16-5.78,1.43-24.89,16.16-40.28,6.4-6.69,13.3-10.54,18.31-12.74,3.33,7.17,6.66,14.35,9.98,21.52-5.3.94-12.84,2.96-20.84,7.6-13.31,7.72-20.45,18.37-23.62,23.9Z"
      fill="#754c29"
    />
    <path
      d="M105.48,53.02c-5.01-1.22-15.21-4.46-24.34-13.45-14.21-13.99-15.4-31.65-15.57-36,3.76,1.06,28.34,8.43,37.02,31.23,2.6,6.82,3.09,13.23,2.89,18.21Z"
      fill="#006838"
    />
    <path
      d="M109.29,64.17c-7.24-5.6-29.85-21.58-55.15-16.34C15.79,55.77-.59,106.67.02,140.77c.75,42.75,28.72,88.37,63.32,94.98,10.53,2.01,26.22,1.28,40.85-3.06,14.21-4.21,23.37-10.63,27.57-13.28,14.75-9.29,40.35-17.47,87.83-11.23V47.8c-14.3-4.57-51.53-14.2-88.85,3.09-8.42,3.9-15.52,8.56-21.45,13.28Z"
      fill="#be1e2d"
    />
    <path
      d="M140.57,224.43c5.45-2.44,13.5-5.56,23.62-7.79,16.01-3.52,28.89-2.97,38.04-2.51,6.7.33,15.72,1.18,26.3,3.35-.17-52.94-.34-105.87-.51-158.81,4,2.55,8,5.11,12,7.66.09,55.15.17,110.3.26,165.45-14.9-4.98-35.69-10.03-60.77-10.47-14.86-.26-28.01,1.17-38.94,3.12Z"
      fill="#be1e2d"
    />
    <path
      d="M125.24,83.03c10.72-7.55,23.04-12.79,35.84-15.24,5.64-1.08,11.41-1.62,17.17-1.62,4.83,0,9.66.38,14.44,1.13v110.99c-3.28-.27-6.56-.4-9.84-.4-8.79,0-17.6.97-26.16,2.87-11.27,2.51-21.98,6.56-31.99,12.08l.55-109.82Z"
      fill="#fff"
    />
    <path
      d="M178.25,73.67h0c2.31,0,4.63.1,6.94.28v96.46c-.78-.01-1.56-.02-2.34-.02-9.34,0-18.69,1.03-27.79,3.05-7.87,1.75-15.49,4.21-22.81,7.36l.19-37.96.28-55.8c7.29-4.65,17.31-9.51,29.77-11.88,5.18-.99,10.48-1.49,15.76-1.49M178.25,58.67c-5.64,0-11.89.48-18.57,1.75-20.46,3.9-34.75,13.31-41.92,18.79-.21,42.42-.42,84.83-.64,127.25,7.86-5.61,21.83-14.08,41.19-18.38,9.02-2.01,17.33-2.69,24.53-2.69,6.92,0,12.81.63,17.34,1.33V61.11c-5.22-1.17-12.78-2.43-21.94-2.43h0Z"
      fill="#fff"
    />
    <path
      d="M99.21,120.93c-13.61,9.95-19.72,20.74-16.75,26.58,1.48,2.92,5.47,5.05,8.61,4.23,5.86-1.53,9-13.37,8.14-30.81Z"
      fill="#fff"
    />
    <path
      d="M122.45,102.47c3.43-3.18,7.43-6.33,12.09-9.19,24.19-14.86,50.43-12.36,62.3-10.38"
      fill="none"
      stroke="#be1e2d"
      stroke-width="9.06"
      stroke-miterlimit="10"
    />
    <path
      d="M122.46,142.28c3.43-3.18,7.43-6.33,12.09-9.19,24.19-14.86,50.43-12.36,62.3-10.38"
      fill="none"
      stroke="#be1e2d"
      stroke-width="9.06"
      stroke-miterlimit="10"
    />
    <path
      d="M122.45,182.09c3.43-3.18,7.43-6.33,12.09-9.19,24.19-14.86,50.43-12.36,62.3-10.38"
      fill="none"
      stroke="#be1e2d"
      stroke-width="9.06"
      stroke-miterlimit="10"
    />
    <path
    d="M178.25,73.67h0c2.31,0,4.63.1,6.94.28v96.46c-.78-.01-1.56-.02-2.34-.02-9.34,0-18.69,1.03-27.79,3.05-7.87,1.75-15.49,4.21-22.81,7.36l.19-37.96.28-55.8c7.29-4.65,17.31-9.51,29.77-11.88,5.18-.99,10.48-1.49,15.76-1.49M178.25,58.67c-5.64,0-11.89.48-18.57,1.75-20.46,3.9-34.75,13.31-41.92,18.79-.21,42.42-.42,84.83-.64,127.25,7.86-5.61,21.83-14.08,41.19-18.38,9.02-2.01,17.33-2.69,24.53-2.69,6.92,0,12.81.63,17.34,1.33V61.11c-5.22-1.17-12.78-2.43-21.94-2.43h0Z"
    fill="#fff"
    />
  </g>
</svg>
